# Exported from Wings 3D 2.1.5
mtllib lowpoly_ship3.mtl
o Cube3_copy6
#8 vertices, 6 faces
v -0.90000000 -0.10177778 -1.0000000e-1
v -0.90000000 -0.10177778 1.30000000
v -0.90000000 9.8222222e-2 -1.0000000e-1
v -0.90000000 9.8222222e-2 1.30000000
v -0.70000000 -0.10177778 -1.0000000e-1
v -0.70000000 -0.10177778 1.30000000
v -0.70000000 9.8222222e-2 -1.0000000e-1
v -0.70000000 9.8222222e-2 1.30000000
vn -0.57735027 -0.57735027 -0.57735027
vn -0.57735027 -0.57735027 0.57735027
vn -0.57735027 0.57735027 -0.57735027
vn -0.57735027 0.57735027 0.57735027
vn 0.57735027 -0.57735027 -0.57735027
vn 0.57735027 -0.57735027 0.57735027
vn 0.57735027 0.57735027 -0.57735027
vn 0.57735027 0.57735027 0.57735027
g Cube3_copy6_default
usemtl default
s 1
f 1//1 5//5 6//6 2//2
f 2//2 4//4 3//3 1//1
f 2//2 6//6 8//8 4//4
f 3//3 7//7 5//5 1//1
f 4//4 8//8 7//7 3//3
f 5//5 7//7 8//8 6//6
o Cube3_copy5
#8 vertices, 6 faces
v -0.60000000 -0.10177778 -0.40000000
v -0.60000000 -0.10177778 1.60000000
v -0.60000000 9.8222222e-2 -0.40000000
v -0.60000000 9.8222222e-2 1.60000000
v -0.40000000 -0.10177778 -0.40000000
v -0.40000000 -0.10177778 1.60000000
v -0.40000000 9.8222222e-2 -0.40000000
v -0.40000000 9.8222222e-2 1.60000000
vn -0.57735027 -0.57735027 -0.57735027
vn -0.57735027 -0.57735027 0.57735027
vn -0.57735027 0.57735027 -0.57735027
vn -0.57735027 0.57735027 0.57735027
vn 0.57735027 -0.57735027 -0.57735027
vn 0.57735027 -0.57735027 0.57735027
vn 0.57735027 0.57735027 -0.57735027
vn 0.57735027 0.57735027 0.57735027
g Cube3_copy5_default
usemtl default
s 1
f 9//9 13//13 14//14 10//10
f 10//10 12//12 11//11 9//9
f 10//10 14//14 16//16 12//12
f 11//11 15//15 13//13 9//9
f 12//12 16//16 15//15 11//11
f 13//13 15//15 16//16 14//14
o Cube3_copy4
#8 vertices, 6 faces
v 0.80000000 -0.10177778 -1.0000000e-1
v 0.80000000 -0.10177778 1.30000000
v 0.80000000 9.8222222e-2 -1.0000000e-1
v 0.80000000 9.8222222e-2 1.30000000
v 1.00000000 -0.10177778 -1.0000000e-1
v 1.00000000 -0.10177778 1.30000000
v 1.00000000 9.8222222e-2 -1.0000000e-1
v 1.00000000 9.8222222e-2 1.30000000
vn -0.57735027 -0.57735027 -0.57735027
vn -0.57735027 -0.57735027 0.57735027
vn -0.57735027 0.57735027 -0.57735027
vn -0.57735027 0.57735027 0.57735027
vn 0.57735027 -0.57735027 -0.57735027
vn 0.57735027 -0.57735027 0.57735027
vn 0.57735027 0.57735027 -0.57735027
vn 0.57735027 0.57735027 0.57735027
g Cube3_copy4_default
usemtl default
s 1
f 17//17 21//21 22//22 18//18
f 18//18 20//20 19//19 17//17
f 18//18 22//22 24//24 20//20
f 19//19 23//23 21//21 17//17
f 20//20 24//24 23//23 19//19
f 21//21 23//23 24//24 22//22
o Cube3
#8 vertices, 6 faces
v 0.50000000 -0.10177778 -0.40000000
v 0.50000000 -0.10177778 1.60000000
v 0.50000000 9.8222222e-2 -0.40000000
v 0.50000000 9.8222222e-2 1.60000000
v 0.70000000 -0.10177778 -0.40000000
v 0.70000000 -0.10177778 1.60000000
v 0.70000000 9.8222222e-2 -0.40000000
v 0.70000000 9.8222222e-2 1.60000000
vn -0.57735027 -0.57735027 -0.57735027
vn -0.57735027 -0.57735027 0.57735027
vn -0.57735027 0.57735027 -0.57735027
vn -0.57735027 0.57735027 0.57735027
vn 0.57735027 -0.57735027 -0.57735027
vn 0.57735027 -0.57735027 0.57735027
vn 0.57735027 0.57735027 -0.57735027
vn 0.57735027 0.57735027 0.57735027
g Cube3_default
usemtl default
s 1
f 25//25 29//29 30//30 26//26
f 26//26 28//28 27//27 25//25
f 26//26 30//30 32//32 28//28
f 27//27 31//31 29//29 25//25
f 28//28 32//32 31//31 27//27
f 29//29 31//31 32//32 30//30
o Cylinder2
#32 vertices, 18 faces
v 1.00000000 1.0000000e-1 -0.10000000
v 0.92387953 1.0000000e-1 0.28268343
v 0.70710678 1.0000000e-1 0.60710678
v 0.38268343 1.0000000e-1 0.82387953
v 6.1232340e-17 1.0000000e-1 0.90000000
v -0.38268343 1.0000000e-1 0.82387953
v -0.70710678 1.0000000e-1 0.60710678
v -0.92387953 1.0000000e-1 0.28268343
v -1.00000000 1.0000000e-1 -1.0000000e-1
v -0.92387953 1.0000000e-1 -0.48268343
v -0.70710678 1.0000000e-1 -0.80710678
v -0.38268343 1.0000000e-1 -1.02387953
v -1.8369702e-16 1.0000000e-1 -1.10000000
v 0.38268343 1.0000000e-1 -1.02387953
v 0.70710678 1.0000000e-1 -0.80710678
v 0.92387953 1.0000000e-1 -0.48268343
v 1.00000000 -1.0000000e-1 -0.10000000
v 0.92387953 -1.0000000e-1 0.28268343
v 0.70710678 -1.0000000e-1 0.60710678
v 0.38268343 -1.0000000e-1 0.82387953
v 6.1232340e-17 -1.0000000e-1 0.90000000
v -0.38268343 -1.0000000e-1 0.82387953
v -0.70710678 -1.0000000e-1 0.60710678
v -0.92387953 -1.0000000e-1 0.28268343
v -1.00000000 -1.0000000e-1 -1.0000000e-1
v -0.92387953 -1.0000000e-1 -0.48268343
v -0.70710678 -1.0000000e-1 -0.80710678
v -0.38268343 -1.0000000e-1 -1.02387953
v -1.8369702e-16 -1.0000000e-1 -1.10000000
v 0.38268343 -1.0000000e-1 -1.02387953
v 0.70710678 -1.0000000e-1 -0.80710678
v 0.92387953 -1.0000000e-1 -0.48268343
vn 0.89090915 0.45418155 -8.8242492e-17
vn 0.82309273 0.45418155 0.34093617
vn 0.62996790 0.45418155 0.62996790
vn 0.34093617 0.45418155 0.82309273
vn 0.0000000e+0 0.45418155 0.89090915
vn -0.34093617 0.45418155 0.82309273
vn -0.62996790 0.45418155 0.62996790
vn -0.82309273 0.45418155 0.34093617
vn -0.89090915 0.45418155 1.6387891e-16
vn -0.82309273 0.45418155 -0.34093617
vn -0.62996790 0.45418155 -0.62996790
vn -0.34093617 0.45418155 -0.82309273
vn 0.0000000e+0 0.45418155 -0.89090915
vn 0.34093617 0.45418155 -0.82309273
vn 0.62996790 0.45418155 -0.62996790
vn 0.82309273 0.45418155 -0.34093617
vn 0.89090915 -0.45418155 -8.8242492e-17
vn 0.82309273 -0.45418155 0.34093617
vn 0.62996790 -0.45418155 0.62996790
vn 0.34093617 -0.45418155 0.82309273
vn 0.0000000e+0 -0.45418155 0.89090915
vn -0.34093617 -0.45418155 0.82309273
vn -0.62996790 -0.45418155 0.62996790
vn -0.82309273 -0.45418155 0.34093617
vn -0.89090915 -0.45418155 1.6387891e-16
vn -0.82309273 -0.45418155 -0.34093617
vn -0.62996790 -0.45418155 -0.62996790
vn -0.34093617 -0.45418155 -0.82309273
vn 0.0000000e+0 -0.45418155 -0.89090915
vn 0.34093617 -0.45418155 -0.82309273
vn 0.62996790 -0.45418155 -0.62996790
vn 0.82309273 -0.45418155 -0.34093617
g Cylinder2_default
usemtl default
s 1
f 33//33 48//48 47//47 46//46 45//45 44//44 43//43 42//42 41//41 40//40 39//39 38//38 37//37 36//36 35//35 34//34
f 33//33 49//49 64//64 48//48
f 34//34 50//50 49//49 33//33
f 35//35 51//51 50//50 34//34
f 36//36 52//52 51//51 35//35
f 37//37 53//53 52//52 36//36
f 38//38 54//54 53//53 37//37
f 39//39 55//55 54//54 38//38
f 40//40 56//56 55//55 39//39
f 41//41 57//57 56//56 40//40
f 42//42 58//58 57//57 41//41
f 43//43 59//59 58//58 42//42
f 44//44 60//60 59//59 43//43
f 45//45 61//61 60//60 44//44
f 46//46 62//62 61//61 45//45
f 47//47 63//63 62//62 46//46
f 48//48 64//64 63//63 47//47
f 50//50 51//51 52//52 53//53 54//54 55//55 56//56 57//57 58//58 59//59 60//60 61//61 62//62 63//63 64//64 49//49
o Cube1
#18 vertices, 16 faces
v -0.75000000 -0.20000000 -0.75000000
v -1.15000000 -0.20533333 0.75000000
v -0.75000000 0.20000000 -0.75000000
v -1.15000000 0.19466667 0.75000000
v 0.75000000 -0.20000000 -0.75000000
v 1.15000000 -0.20000000 0.75000000
v 0.75000000 0.20000000 -0.75000000
v 1.15000000 0.20000000 0.75000000
v -1.40000000 -0.20533333 0.0000000e+0
v 0.0000000e+0 -0.30000000 -0.80000000
v 0.0000000e+0 -0.10711111 1.70000000
v 1.40000000 -0.20000000 0.0000000e+0
v 0.0000000e+0 -0.30000000 0.0000000e+0
v -1.40000000 0.19466667 0.0000000e+0
v 0.0000000e+0 0.20000000 -0.80000000
v 0.0000000e+0 0.20000000 1.70000000
v 1.40000000 0.20000000 0.0000000e+0
v 0.0000000e+0 0.28755556 0.0000000e+0
vn -0.42149202 -0.45920431 -0.78196923
vn -0.72458630 -0.44712271 0.52445779
vn -0.39913006 0.45875472 -0.79387613
vn -0.73637998 0.44816759 0.50684350
vn 0.42278188 -0.45934466 -0.78119010
vn 0.72545840 -0.44638823 0.52387753
vn 0.39784834 0.45852838 -0.79464987
vn 0.73552531 0.44894057 0.50740012
vn -0.67143443 -0.73285230 -0.11001504
vn 8.3465493e-4 -0.69190038 -0.72199249
vn 1.6497805e-3 -0.75974617 0.65021769
vn 0.67292083 -0.73166822 -0.10880799
vn 1.6888480e-3 -0.99978453 2.0688999e-2
vn -0.66439674 0.73489285 -0.13604950
vn -8.2685027e-4 0.68128279 -0.73201986
vn -1.6815838e-3 0.77567468 0.63113070
vn 0.66287890 0.73603050 -0.13729776
vn -1.6909066e-3 0.99987074 -1.5989114e-2
g Cube1_default
usemtl default
s 1
f 65//65 74//74 77//77 73//73
f 66//66 73//73 77//77 75//75
f 66//66 75//75 80//80 68//68
f 67//67 79//79 74//74 65//65
f 68//68 78//78 73//73 66//66
f 69//69 71//71 81//81 76//76
f 69//69 74//74 79//79 71//71
f 70//70 76//76 81//81 72//72
f 71//71 79//79 82//82 81//81
f 72//72 80//80 75//75 70//70
f 72//72 81//81 82//82 80//80
f 73//73 78//78 67//67 65//65
f 75//75 77//77 76//76 70//70
f 76//76 77//77 74//74 69//69
f 78//78 82//82 79//79 67//67
f 80//80 82//82 78//78 68//68
