# Exported from Wings 3D 2.1.5
mtllib lowpoly_ship2.mtl
o Cube3
#8 vertices, 6 faces
v -1.20000000 -0.20000000 -1.10355556
v -1.20000000 -0.20000000 -0.70355556
v -1.20000000 0.10000000 -1.10355556
v -1.20000000 0.10000000 -0.70355556
v 1.20000000 -0.20000000 -1.10355556
v 1.20000000 -0.20000000 -0.70355556
v 1.20000000 0.10000000 -1.10355556
v 1.20000000 0.10000000 -0.70355556
vn -0.57735027 -0.57735027 -0.57735027
vn -0.57735027 -0.57735027 0.57735027
vn -0.57735027 0.57735027 -0.57735027
vn -0.57735027 0.57735027 0.57735027
vn 0.57735027 -0.57735027 -0.57735027
vn 0.57735027 -0.57735027 0.57735027
vn 0.57735027 0.57735027 -0.57735027
vn 0.57735027 0.57735027 0.57735027
g Cube3_default
usemtl default
s 1
f 1//1 5//5 6//6 2//2
f 2//2 4//4 3//3 1//1
f 2//2 6//6 8//8 4//4
f 3//3 7//7 5//5 1//1
f 4//4 8//8 7//7 3//3
f 5//5 7//7 8//8 6//6
o Cube2
#8 vertices, 6 faces
v -0.60000000 0.21022222 -0.70000000
v -0.30000000 0.21022222 0.70000000
v -0.60000000 0.44800000 -0.70000000
v -0.30000000 0.24800000 0.70000000
v 0.50000000 0.21022222 -0.70000000
v 0.30000000 0.21022222 0.70000000
v 0.50000000 0.44800000 -0.70000000
v 0.30000000 0.24800000 0.70000000
vn -0.60864211 -0.62245920 -0.49203589
vn -0.52880781 -0.54081254 0.65412850
vn -0.63685107 0.64476257 -0.42273152
vn -0.50418501 0.51044842 0.69659162
vn 0.60055896 -0.60665616 -0.52086202
vn 0.54637145 -0.55191851 0.62997158
vn 0.62934036 0.62934036 -0.45591823
vn 0.52133769 0.52133769 0.67558422
g Cube2_default
usemtl default
s 1
f 9//9 13//13 14//14 10//10
f 10//10 12//12 11//11 9//9
f 10//10 14//14 16//16 12//12
f 11//11 15//15 13//13 9//9
f 12//12 16//16 15//15 11//11
f 13//13 15//15 16//16 14//14
o Cube1
#17 vertices, 13 faces
v -1.00000000 -0.47377778 -1.00000000
v -0.75000000 -0.37800000 1.00000000
v -1.00000000 0.29244444 -1.00000000
v -0.75000000 0.19666667 1.00000000
v 1.00000000 -0.47377778 -1.00000000
v 0.75000000 -0.37800000 1.00000000
v 1.00000000 0.29244444 -1.00000000
v 0.75000000 0.19666667 1.00000000
v -1.00000000 -9.0666667e-2 1.00000000
v 0.0000000e+0 -0.47377778 1.00000000
v 0.0000000e+0 0.19244444 1.00000000
v 1.00000000 -9.0666667e-2 1.00000000
v 0.0000000e+0 -9.0666667e-2 1.80000000
v 0.0000000e+0 0.26177778 -1.00000000
v 0.0000000e+0 -0.47377778 -1.00000000
v 1.97422222 -9.0666667e-2 -1.00000000
v -2.00000000 -9.0666667e-2 -1.00000000
vn -0.24803030 -0.88937623 -0.38404542
vn -0.28531258 -0.92194282 0.26195071
vn -0.21470306 0.89892432 -0.38188698
vn -0.23686314 0.93843423 0.25146979
vn 0.25182575 -0.88804493 -0.38465569
vn 0.28814400 -0.92109376 0.26183836
vn 0.21854687 0.89771262 -0.38255629
vn 0.23969883 0.93773562 0.25138889
vn -0.72096254 2.4256179e-2 0.69254939
vn -3.7157500e-18 -0.94977462 0.31293479
vn 1.1829790e-17 0.95666648 0.29118592
vn 0.72491889 2.4137492e-2 0.68841121
vn 0.0000000e+0 4.5851151e-2 0.99894828
vn 1.4195471e-17 0.90832899 -0.41825644
vn 0.0000000e+0 -0.90377773 -0.42800212
vn 0.81701816 0.0000000e+0 -0.57661193
vn -0.81320256 0.0000000e+0 -0.58198076
g Cube1_default
usemtl default
s 1
f 17//17 31//31 26//26 18//18
f 18//18 25//25 33//33 17//17
f 18//18 26//26 29//29 25//25
f 19//19 33//33 25//25 20//20
f 20//20 25//25 29//29 27//27
f 20//20 27//27 30//30 19//19
f 21//21 32//32 28//28 22//22
f 22//22 26//26 31//31 21//21
f 23//23 30//30 27//27 24//24
f 24//24 28//28 32//32 23//23
f 27//27 29//29 28//28 24//24
f 28//28 29//29 26//26 22//22
f 33//33 19//19 30//30 23//23 32//32 21//21 31//31 17//17
