# Exported from Wings 3D 2.1.5
mtllib ship1.mtl
o Cube1_copy2
#25 vertices, 21 faces
v -0.60757664 -0.93844444 -1.35680438
v -1.00000000 -1.00000000 -2.14258215
v -0.72879318 -0.61822222 -1.35680438
v -1.34693528 -0.50755556 -1.63422559
v 1.91666667 -0.98755556 -1.35680438
v 0.90400000 -1.00000000 -2.14258215
v 1.89242336 -0.86377778 -1.35680438
v 0.90400000 -0.92355556 -2.14258215
v -1.00000000 -0.90044444 -2.67947104
v -1.00000000 -1.00000000 -2.67947104
v 1.00000000 -1.00000000 -2.67947104
v 1.00000000 -0.90044444 -2.67947104
v -1.00000000 -0.90044444 -3.42613771
v -1.00000000 -1.00000000 -3.72006899
v 1.00000000 -1.00000000 -2.73280438
v 1.00000000 -0.90044444 -2.73280438
v -1.09697323 -0.75377778 -1.35680438
v 0.66666667 -1.00000000 -1.35680438
v 0.56969344 -0.70400000 -1.35680438
v 2.33333333 -0.95022222 -1.35680438
v 0.61818005 -0.85200000 -1.35680438
v -4.8000000e-2 -1.00000000 -2.14258215
v 0.90400000 -0.96177778 -2.14258215
v -1.17346764 -0.75377778 -1.88840387
v -0.22146764 -0.71555556 -1.88840387
vn -0.21862867 -0.80531108 0.55106766
vn -0.38799497 -0.92022961 5.1355195e-2
vn -0.33297745 0.48664495 0.80765260
vn -0.69916718 0.70225685 0.13416620
vn 8.4965579e-2 -0.93038761 0.35659466
vn 0.36636870 -0.93016212 -2.3924923e-2
vn 0.19328696 0.96270665 0.18930411
vn 0.44146117 0.87292468 -0.20764043
vn -0.76037079 0.63794433 -0.12191506
vn -0.61051006 -0.79155022 -2.6939323e-2
vn 0.70296008 -0.70849082 6.2352954e-2
vn 0.72085453 0.69299417 -1.1306019e-2
vn -0.37815799 0.88613877 -0.26787052
vn -0.79930050 -0.20136607 -0.56618939
vn 0.90457280 -0.14285524 -0.40167205
vn 0.54595353 0.80197453 -0.24242855
vn -0.38162086 -0.27707749 0.88181267
vn -7.6449897e-3 -0.69614124 0.71786414
vn 9.0093898e-2 0.75078200 0.65437717
vn 0.30103699 -5.6188087e-2 0.95195569
vn 0.0000000e+0 0.0000000e+0 1.00000000
vn -7.3170488e-3 -0.99977147 2.0086467e-2
vn 0.94132748 -5.2505914e-2 -0.33338522
vn -0.80739357 -0.51171965 0.29369820
vn 0.10213304 0.98059583 -0.16733398
g Cube1_copy2_default
usemtl default
s 1
f 1//1 17//17 24//24 2//2
f 1//1 18//18 21//21 17//17
f 2//2 22//22 18//18 1//1
f 3//3 4//4 24//24 17//17
f 3//3 19//19 25//25 4//4
f 4//4 9//9 10//10 2//2 24//24
f 5//5 20//20 21//21 18//18
f 6//6 23//23 20//20 5//5
f 7//7 8//8 25//25 19//19
f 8//8 12//12 9//9 4//4 25//25
f 9//9 13//13 14//14 10//10
f 10//10 14//14 15//15 11//11
f 11//11 15//15 16//16 12//12
f 12//12 16//16 13//13 9//9
f 13//13 16//16 15//15 14//14
f 17//17 21//21 19//19 3//3
f 18//18 22//22 6//6 5//5
f 19//19 21//21 20//20 7//7
f 20//20 23//23 8//8 7//7
f 22//22 2//2 10//10 11//11 6//6
f 23//23 6//6 11//11 12//12 8//8
o Cube1
#31 vertices, 27 faces
v -0.60757664 -0.93844444 -1.00000000
v -1.00000000 -1.00000000 -0.21422222
v -0.72879318 -0.61822222 -1.00000000
v -1.34693528 -0.50755556 -0.72257878
v 1.91666667 -0.98755556 -1.00000000
v 0.90400000 -1.00000000 -0.21422222
v 1.89242336 -0.86377778 -1.00000000
v 0.90400000 -0.92355556 -0.21422222
v -1.00000000 -0.90044444 0.32266667
v -1.00000000 -1.00000000 0.32266667
v 1.00000000 -1.00000000 0.32266667
v 1.00000000 -0.90044444 0.32266667
v -1.00000000 -0.90044444 1.06933333
v -1.00000000 -1.00000000 1.36326461
v 1.00000000 -1.00000000 0.37600000
v 1.00000000 -0.90044444 0.37600000
v -1.09697323 -0.75377778 -1.00000000
v 0.66666667 -1.00000000 -1.00000000
v 0.56969344 -0.70400000 -1.00000000
v 2.33333333 -0.95022222 -1.00000000
v 0.61818005 -0.85200000 -1.00000000
v -4.8000000e-2 -1.00000000 -0.21422222
v 0.90400000 -0.96177778 -0.21422222
v -1.17346764 -0.75377778 -0.46840050
v -0.22146764 -0.71555556 -0.46840050
v 0.66666667 -1.00000000 -1.35777701
v 0.61818005 -0.85200000 -1.35777701
v -0.60757664 -0.93844444 -1.35777701
v -1.09697323 -0.75377778 -1.35777701
v 2.33333333 -0.95022222 -1.35777701
v 1.91666667 -0.98755556 -1.35777701
vn -0.23169574 -0.97036774 -6.8582320e-2
vn -0.38799497 -0.92022961 -5.1355195e-2
vn -0.33297745 0.48664495 -0.80765260
vn -0.69916718 0.70225685 -0.13416620
vn 6.9963397e-2 -0.99552431 6.3533288e-2
vn 0.36636870 -0.93016212 2.3924923e-2
vn 0.19328696 0.96270665 -0.18930411
vn 0.44146117 0.87292468 0.20764043
vn -0.76037079 0.63794433 0.12191506
vn -0.61051006 -0.79155022 2.6939323e-2
vn 0.70296008 -0.70849082 -6.2352954e-2
vn 0.72085453 0.69299417 1.1306019e-2
vn -0.37815799 0.88613877 0.26787052
vn -0.79930050 -0.20136607 0.56618939
vn 0.90457280 -0.14285524 0.40167205
vn 0.54595353 0.80197453 0.24242855
vn -0.60135073 -0.32766690 -0.72870550
vn -1.5068341e-2 -0.99977294 -1.5066795e-2
vn 9.0093898e-2 0.75078200 -0.65437717
vn 0.86024235 -0.11544740 -0.49664374
vn 4.0427868e-2 0.70595013 -0.70710678
vn -7.3170488e-3 -0.99977147 -2.0086467e-2
vn 0.94132748 -5.2505914e-2 0.33338522
vn -0.80739357 -0.51171965 -0.29369820
vn 0.10213304 0.98059583 0.16733398
vn -1.3542623e-2 -0.70682719 -0.70725661
vn 4.0427868e-2 0.70595013 -0.70710678
vn -0.18122672 -0.87361581 -0.45161078
vn -0.28319556 6.0068166e-2 -0.95717924
vn 0.14487112 2.3294777e-3 -0.98944779
vn 4.4390478e-2 -0.89318368 -0.44749570
g Cube1_default
usemtl default
s 1
f 26//26 43//43 47//47 27//27
f 26//26 53//53 51//51 43//43
f 27//27 35//35 34//34 29//29 49//49
f 27//27 49//49 42//42 26//26
f 28//28 42//42 49//49 29//29
f 29//29 34//34 37//37 33//33 50//50
f 29//29 50//50 44//44 28//28
f 30//30 45//45 48//48 31//31
f 30//30 56//56 55//55 45//45
f 31//31 47//47 43//43 30//30
f 32//32 44//44 50//50 33//33
f 32//32 45//45 46//46 44//44
f 33//33 48//48 45//45 32//32
f 34//34 38//38 41//41 37//37
f 35//35 39//39 38//38 34//34
f 36//36 40//40 39//39 35//35
f 37//37 41//41 40//40 36//36
f 39//39 40//40 41//41 38//38
f 42//42 54//54 53//53 26//26
f 43//43 51//51 56//56 30//30
f 44//44 46//46 42//42 28//28
f 45//45 55//55 52//52 46//46
f 46//46 52//52 54//54 42//42
f 47//47 31//31 36//36 35//35 27//27
f 48//48 33//33 37//37 36//36 31//31
f 51//51 53//53 54//54 52//52
f 52//52 55//55 56//56 51//51
