# Exported from Wings 3D 2.1.5
mtllib ship1.mtl
o Cube1_copy2
#25 vertices, 46 faces
v -0.60757664 1.35680438 -0.93844444
v -1.00000000 2.14258215 -1.00000000
v -0.72879318 1.35680438 -0.61822222
v -1.34693528 1.63422559 -0.50755556
v 1.91666667 1.35680438 -0.98755556
v 0.90400000 2.14258215 -1.00000000
v 1.89242336 1.35680438 -0.86377778
v 0.90400000 2.14258215 -0.92355556
v -1.00000000 2.67947104 -0.90044444
v -1.00000000 2.67947104 -1.00000000
v 1.00000000 2.67947104 -1.00000000
v 1.00000000 2.67947104 -0.90044444
v -1.00000000 3.42613771 -0.90044444
v -1.00000000 3.72006899 -1.00000000
v 1.00000000 2.73280438 -1.00000000
v 1.00000000 2.73280438 -0.90044444
v -1.09697323 1.35680438 -0.75377778
v 0.66666667 1.35680438 -1.00000000
v 0.56969344 1.35680438 -0.70400000
v 2.33333333 1.35680438 -0.95022222
v 0.61818005 1.35680438 -0.85200000
v -4.8000000e-2 2.14258215 -1.00000000
v 0.90400000 2.14258215 -0.96177778
v -1.17346764 1.88840387 -0.75377778
v -0.22146764 1.88840387 -0.71555556
vn -0.21191158 -0.55127061 -0.80696604
vn -0.59519951 -7.9948840e-2 -0.79959097
vn -0.14293556 -0.74389525 0.65283174
vn -0.82578169 -7.2980684e-2 0.55924808
vn 0.21884980 -0.32941607 -0.91847146
vn 0.60772884 0.22758074 -0.76083682
vn 0.34000017 -0.14518198 0.92915127
vn 0.67934040 0.26779073 0.68321648
vn -0.83877392 0.13380831 0.52778181
vn -0.44721360 0.0000000e+0 -0.89442719
vn 0.79574519 -7.0583046e-2 -0.60150446
vn 0.73081988 -4.6598523e-2 0.68097789
vn -0.41196720 0.14767224 0.89915290
vn -0.76528460 0.64294391 -3.1025961e-2
vn 0.54979037 0.34173238 -0.76220045
vn 0.62575243 0.29791376 0.72088923
vn -0.31522353 -0.94901658 1.2903122e-3
vn -1.3412488e-2 -0.71350123 -0.70052559
vn 7.0553835e-2 -0.64944945 0.75712454
vn 0.17509803 -0.98368842 -4.1204000e-2
vn 0.0000000e+0 -1.00000000 -1.0331038e-16
vn -5.4675246e-3 -1.8399597e-2 -0.99981576
vn 0.94553743 0.32523622 -1.3430082e-2
vn -0.78338016 -0.17795844 -0.59552189
vn 0.11385264 0.14806756 0.98240194
g Cube1_copy2
usemtl default
s 1
f 1//1 21//21 17//17
f 1//1 22//22 18//18
f 1//1 24//24 2//2
f 2//2 22//22 1//1
f 3//3 21//21 19//19
f 3//3 24//24 17//17
f 3//3 25//25 4//4
f 4//4 9//9 24//24
f 4//4 25//25 9//9
f 5//5 21//21 18//18
f 5//5 23//23 20//20
f 6//6 5//5 22//22
f 6//6 23//23 5//5
f 7//7 21//21 20//20
f 7//7 25//25 19//19
f 8//8 7//7 23//23
f 8//8 12//12 25//25
f 9//9 14//14 10//10
f 9//9 16//16 13//13
f 9//9 25//25 12//12
f 10//10 2//2 9//9
f 10//10 15//15 11//11
f 10//10 22//22 2//2
f 11//11 16//16 12//12
f 11//11 22//22 10//10
f 11//11 23//23 6//6
f 12//12 16//16 9//9
f 12//12 23//23 11//11
f 13//13 16//16 14//14
f 14//14 9//9 13//13
f 14//14 16//16 15//15
f 15//15 10//10 14//14
f 16//16 11//11 15//15
f 17//17 21//21 3//3
f 17//17 24//24 1//1
f 18//18 21//21 1//1
f 18//18 22//22 5//5
f 19//19 21//21 7//7
f 19//19 25//25 3//3
f 20//20 21//21 5//5
f 20//20 23//23 7//7
f 22//22 11//11 6//6
f 23//23 12//12 8//8
f 24//24 3//3 4//4
f 24//24 9//9 2//2
f 25//25 7//7 8//8
o Cube1
#31 vertices, 58 faces
v -0.60757664 1.00000000 -0.93844444
v -1.00000000 0.21422222 -1.00000000
v -0.72879318 1.00000000 -0.61822222
v -1.34693528 0.72257878 -0.50755556
v 1.91666667 1.00000000 -0.98755556
v 0.90400000 0.21422222 -1.00000000
v 1.89242336 1.00000000 -0.86377778
v 0.90400000 0.21422222 -0.92355556
v -1.00000000 -0.32266667 -0.90044444
v -1.00000000 -0.32266667 -1.00000000
v 1.00000000 -0.32266667 -1.00000000
v 1.00000000 -0.32266667 -0.90044444
v -1.00000000 -1.06933333 -0.90044444
v -1.00000000 -1.36326461 -1.00000000
v 1.00000000 -0.37600000 -1.00000000
v 1.00000000 -0.37600000 -0.90044444
v -1.09697323 1.00000000 -0.75377778
v 0.66666667 1.00000000 -1.00000000
v 0.56969344 1.00000000 -0.70400000
v 2.33333333 1.00000000 -0.95022222
v 0.61818005 1.00000000 -0.85200000
v -4.8000000e-2 0.21422222 -1.00000000
v 0.90400000 0.21422222 -0.96177778
v -1.17346764 0.46840050 -0.75377778
v -0.22146764 0.46840050 -0.71555556
v 0.66666667 1.35777701 -1.00000000
v 0.61818005 1.35777701 -0.85200000
v -0.60757664 1.35777701 -0.93844444
v -1.09697323 1.35777701 -0.75377778
v 2.33333333 1.35777701 -0.95022222
v 1.91666667 1.35777701 -0.98755556
vn -0.20138872 8.7487748e-2 -0.97559647
vn -0.51001335 6.0928352e-2 -0.85800590
vn -6.3976013e-2 0.78154378 0.62056134
vn -0.54262166 0.16727906 0.82315214
vn 4.9575140e-2 -2.3977569e-2 -0.99848254
vn 0.35890534 -0.18256874 -0.91534453
vn 0.15128099 0.24039172 0.95881483
vn 0.45657418 -0.29650817 0.83882235
vn -0.76991785 -0.15682644 0.61857253
vn -0.60000000 -2.1338174e-17 -0.80000000
vn 0.70096392 8.3119179e-2 -0.70833664
vn 0.81544681 3.9516390e-2 0.57748156
vn -0.54861679 -0.45657149 0.70040138
vn -0.93375447 -0.35071900 -7.1405747e-2
vn 0.83285373 -0.42303668 -0.35692383
vn 0.51460241 -0.36625172 0.77527030
vn -0.60418516 0.72587549 -0.32873250
vn -1.4342881e-2 1.3114248e-2 -0.99981113
vn 8.3302396e-2 0.67784074 0.73047426
vn 0.99446539 -9.9709129e-2 -3.3116140e-2
vn 4.0427868e-2 0.70710678 0.70595013
vn 0.0000000e+0 0.0000000e+0 -1.00000000
vn 0.95443769 -0.29841029 0.0000000e+0
vn -0.81381122 7.4952836e-3 -0.58108099
vn 0.11337172 -0.18212456 0.97671772
vn -1.3542623e-2 0.70725661 -0.70682719
vn 4.0427868e-2 0.70710678 0.70595013
vn -0.18122672 0.45161078 -0.87361581
vn -0.28319556 0.95717924 6.0068166e-2
vn 0.14487112 0.98944779 2.3294777e-3
vn 4.4390478e-2 0.44749570 -0.89318368
g Cube1
usemtl default
s 1
f 26//26 43//43 27//27
f 26//26 53//53 43//43
f 27//27 34//34 49//49
f 27//27 42//42 26//26
f 27//27 43//43 47//47
f 28//28 42//42 29//29
f 29//29 34//34 50//50
f 29//29 42//42 49//49
f 29//29 44//44 28//28
f 29//29 49//49 34//34
f 30//30 45//45 31//31
f 30//30 56//56 45//45
f 31//31 43//43 30//30
f 31//31 45//45 48//48
f 32//32 44//44 33//33
f 32//32 45//45 44//44
f 33//33 44//44 50//50
f 33//33 45//45 32//32
f 33//33 50//50 37//37
f 34//34 27//27 35//35
f 34//34 41//41 37//37
f 35//35 38//38 34//34
f 35//35 47//47 36//36
f 36//36 40//40 35//35
f 36//36 47//47 31//31
f 36//36 48//48 37//37
f 37//37 40//40 36//36
f 37//37 48//48 33//33
f 37//37 50//50 34//34
f 38//38 35//35 39//39
f 38//38 41//41 34//34
f 39//39 35//35 40//40
f 39//39 40//40 38//38
f 40//40 37//37 41//41
f 41//41 38//38 40//40
f 42//42 52//52 54//54
f 42//42 53//53 26//26
f 43//43 53//53 51//51
f 43//43 56//56 30//30
f 44//44 42//42 28//28
f 44//44 45//45 46//46
f 45//45 52//52 46//46
f 45//45 56//56 55//55
f 46//46 42//42 44//44
f 46//46 52//52 42//42
f 47//47 35//35 27//27
f 47//47 43//43 31//31
f 48//48 36//36 31//31
f 48//48 45//45 33//33
f 49//49 42//42 27//27
f 50//50 44//44 29//29
f 51//51 53//53 52//52
f 51//51 56//56 43//43
f 52//52 56//56 51//51
f 54//54 52//52 53//53
f 54//54 53//53 42//42
f 55//55 52//52 45//45
f 55//55 56//56 52//52
