# Blender v2.79 (sub 0) OBJ File: 'ship_6.blend'
# www.blender.org
mtllib ship_6.mtl
o WrmZ_5_Stub_Wing_Cube.177
v -1.597328 0.326362 0.006636
v -1.598534 0.326362 -0.993362
v 0.401466 0.326362 -0.995773
v 0.402672 0.326362 0.004227
v 0.401466 1.492830 -0.995773
v -0.586590 0.483217 -1.409657
v -0.586590 1.335976 -1.409657
v -1.598534 1.492830 -0.993362
v -1.396610 1.335976 -1.143074
v -1.396610 0.483217 -1.143074
v -1.585133 0.483217 -1.278311
v -1.185909 0.667611 -2.031843
v -1.185909 1.151582 -2.031843
v -1.585133 1.335976 -1.278311
v -2.588223 1.125088 -1.639307
v -2.588223 0.694104 -1.639307
v -2.588696 1.151582 -2.030153
v -2.588696 0.667611 -2.030153
v -0.019848 1.085936 -1.772549
v -0.020164 1.151582 -2.033249
v -0.020164 0.667611 -2.033249
v -0.019848 0.733256 -1.772549
v -2.134762 0.445958 0.007284
v -2.135448 0.445958 -0.564260
v -2.135448 1.126448 -0.564260
v -2.134762 1.126448 0.007284
v 1.783390 0.736581 -0.997438
v 1.784595 0.736582 0.002562
v 1.783390 1.362082 -0.997438
v -1.186081 0.667611 -2.175917
v -0.020336 0.667611 -2.177322
v -0.020336 1.151582 -2.177322
v -1.186081 1.151582 -2.175917
v -2.588867 1.151582 -2.174227
v -2.588867 0.667611 -2.174227
v 0.401772 1.492830 -0.740650
v 1.153942 1.492830 -0.434340
v 1.784592 1.362082 0.002562
v 1.154469 1.492830 0.003321
v -1.924274 1.269941 0.007030
v -1.924858 1.269941 -0.477196
v -1.598225 1.492830 -0.738239
v -1.655663 1.781019 -0.738171
v 0.344337 1.781019 -0.740582
v 1.096504 1.781019 -0.434271
v 1.097031 1.781019 0.003389
v -1.654766 1.781019 0.006706
v -1.880829 1.836046 -0.824444
v -1.879826 1.836046 0.006977
v -1.823391 1.547857 -0.824512
v -2.150028 1.324968 -0.563469
v -2.149338 1.324968 0.007301
v -2.207462 1.613157 -0.563398
v -2.206776 1.613157 0.007370
v -1.258766 1.781019 0.006229
v -1.259243 1.781019 -0.392189
v 0.165131 1.781019 -0.393906
v 0.700920 1.781019 -0.087332
v 0.701031 1.781019 0.003866
v -1.259243 1.869376 -0.392189
v 0.165131 1.869376 -0.393906
v 0.700920 1.869376 -0.087332
v 0.701031 1.869376 0.003866
v -1.258766 1.869376 0.006229
v 0.165611 1.869376 0.004513
v 2.153187 1.362082 -0.428600
v 2.153187 0.736582 -0.428600
v 2.153706 0.736582 0.002117
v 2.153702 1.362082 0.002117
v 0.403877 0.326362 1.004227
v -1.596123 0.326362 1.006636
v 0.403877 1.492830 1.004225
v -0.583179 1.335976 1.420488
v -0.583179 0.483217 1.420488
v -1.393837 0.483217 1.155859
v -1.393837 1.335976 1.155859
v -1.596123 1.492830 1.006636
v -1.180996 0.667611 2.044119
v -1.582039 0.483217 1.291550
v -1.582039 1.335976 1.291550
v -1.180996 1.151582 2.044119
v -2.584255 0.694104 1.654964
v -2.584255 1.125088 1.654964
v -2.583782 1.151582 2.045811
v -2.583782 0.667611 2.045811
v -0.015251 1.151582 2.042715
v -0.015564 1.085936 1.782015
v -0.015564 0.733256 1.782015
v -0.015251 0.667611 2.042715
v -2.134071 0.445958 0.578829
v -2.134071 1.126448 0.578829
v 1.785801 0.736581 1.002560
v 1.785801 1.362082 1.002560
v -0.015076 0.667611 2.186789
v -1.180824 0.667611 2.188192
v -0.015076 1.151582 2.186789
v -1.180824 1.151582 2.188192
v -2.583607 1.151582 2.189882
v -2.583607 0.667611 2.189882
v 1.154995 1.492830 0.440981
v 0.403568 1.492830 0.749104
v -1.923691 1.269941 0.491257
v -1.596432 1.492830 0.751513
v 0.346130 1.781019 0.749172
v -1.653866 1.781019 0.751581
v 1.097557 1.781019 0.441050
v -1.878826 1.836046 0.838398
v -1.821388 1.547857 0.838327
v -2.148651 1.324968 0.578072
v -2.206089 1.613157 0.578140
v -1.258286 1.781019 0.404646
v 0.701141 1.781019 0.095064
v 0.166092 1.781019 0.402929
v 0.166092 1.869376 0.402929
v -1.258286 1.869376 0.404646
v 0.701141 1.869376 0.095064
v 2.154224 0.736581 0.432833
v 2.154224 1.362082 0.432833
v -2.252583 0.319954 0.535557
v -2.253853 0.319954 -0.516739
v -0.260353 0.319954 0.533155
v 0.943825 0.319954 0.531704
v 0.942554 0.319954 -0.520590
v -0.261623 0.319954 -0.519140
v -2.253853 -0.625463 -0.516739
v -2.252583 -0.625463 0.535557
v 2.203953 0.319954 -0.522110
v 1.065472 0.319954 -0.520739
v 2.205223 0.319954 0.530184
v 1.066742 0.319954 0.531557
v 2.204475 1.320797 -0.088766
v 2.204700 1.320797 0.096838
v 1.064465 0.085256 -1.356291
v 0.941551 0.085256 -1.356142
v 0.944832 0.085256 1.367256
v 1.067749 0.085256 1.367107
v 0.943825 -0.625463 0.531704
v 1.066742 -0.625463 0.531557
v 1.067749 -0.309736 1.367107
v 0.944832 -0.309736 1.367256
v 1.065472 -0.625463 -0.520739
v 0.942554 -0.625463 -0.520590
v 0.941551 -0.309736 -1.356142
v 1.064465 -0.309736 -1.356291
v 0.843021 0.281436 1.626255
v 0.843029 -0.494412 1.634583
v 1.170197 -0.494412 1.634190
v 1.170189 0.281436 1.625862
v 0.839100 -0.494412 -1.623222
v 0.839111 0.281436 -1.614895
v 1.166279 0.281436 -1.615290
v 1.166267 -0.494412 -1.623617
v -0.262630 -0.309736 -1.354691
v -0.262630 0.085256 -1.354691
v -0.105690 0.281436 -1.613758
v -0.105698 -0.494412 -1.622086
v -0.104477 0.632665 -0.607166
v -0.261623 -0.625463 -0.519140
v -0.104507 -0.929308 -0.634144
v -0.259346 0.085256 1.368711
v -0.101780 0.281436 1.627394
v -0.102997 0.632665 0.620804
v -0.259346 -0.309736 1.368711
v -0.101772 -0.494412 1.635721
v -0.260353 -0.625463 0.533155
v -0.102962 -0.929308 0.647781
v 2.206230 -0.309735 1.365736
v 2.206230 0.085256 1.365736
v 2.049286 0.281436 1.624802
v 2.049297 -0.494412 1.633129
v 2.202946 0.085256 -1.357662
v 2.202946 -0.309735 -1.357662
v 2.045372 -0.494412 -1.624681
v 2.045383 0.281436 -1.616350
v 0.840290 -0.929308 -0.635283
v 2.203953 -0.625463 -0.522110
v 2.046562 -0.929308 -0.636736
v 1.167458 -0.929308 -0.635677
v 0.841839 -0.929308 0.646643
v 1.169003 -0.929308 0.646248
v 2.205223 -0.625463 0.530184
v 2.048107 -0.929308 0.645189
v 0.841808 0.632665 0.619665
v 2.048073 0.632665 0.618212
v 1.168972 0.632665 0.619270
v 0.840324 0.632665 -0.608305
v 1.167492 0.632665 -0.608700
v 2.046593 0.632665 -0.609758
v -1.006359 -0.309736 -1.353794
v -1.006359 0.085256 -1.353794
v -1.003075 0.085256 1.369608
v -1.003075 -0.309736 1.369608
v -2.253391 -0.866732 -0.134346
v -2.253044 -0.866732 0.153164
v -0.260815 -0.866732 0.150763
v 1.066280 -0.866732 0.149164
v 2.204762 -0.866732 0.147791
v 0.943363 -0.866732 0.149311
v 2.204414 -0.866732 -0.139717
v 1.065933 -0.866732 -0.138346
v 0.943016 -0.866732 -0.138199
v -0.261162 -0.866732 -0.136747
v 2.492905 -0.866732 -0.140066
v 2.493252 -0.866732 0.147444
v 2.789589 -0.625463 -0.522816
v 2.790857 -0.625463 0.529478
v 2.791864 -0.309735 1.365030
v 2.791864 0.085256 1.365030
v 2.788582 0.085256 -1.358368
v 2.788582 -0.309735 -1.358368
v 2.790857 0.319954 0.529478
v 2.789589 0.319954 -0.522816
v 2.294540 1.320797 0.096731
v 2.294315 1.320797 -0.088873
vn 0.0000 -1.0000 -0.0000
vn 0.3864 0.0000 -0.9223
vn -0.5956 0.0000 -0.8033
vn -0.0422 0.8968 -0.4404
vn -0.0422 -0.8968 -0.4404
vn -0.0275 -0.9775 -0.2093
vn -0.0275 0.9775 -0.2093
vn -0.5829 0.0000 0.8126
vn -0.3386 0.0000 0.9409
vn -0.0628 0.9855 -0.1579
vn -0.0628 -0.9855 -0.1579
vn -1.0000 0.0000 0.0012
vn 0.0990 0.9751 -0.1984
vn 0.0990 -0.9751 -0.1984
vn 0.5392 0.0000 0.8422
vn 1.0000 0.0000 -0.0012
vn -0.2172 -0.9761 0.0003
vn -0.6243 0.0000 -0.7812
vn 0.2846 -0.9587 -0.0003
vn -0.0012 0.0000 -1.0000
vn 0.0000 1.0000 0.0000
vn 0.0752 0.9921 -0.1007
vn 0.2032 0.9791 -0.0002
vn -0.5633 0.8263 0.0007
vn 0.9807 0.1955 -0.0012
vn 0.3761 0.0752 -0.9235
vn 0.2375 0.9714 -0.0003
vn 0.3726 0.0745 -0.9250
vn 0.0440 -0.7863 -0.6163
vn -0.2375 -0.9714 0.0003
vn -0.9807 -0.1955 0.0012
vn -0.5717 -0.1138 -0.8125
vn 0.4966 0.0000 -0.8680
vn 0.8384 0.0000 -0.5450
vn 0.3886 0.0000 0.9214
vn -0.5936 0.0000 0.8047
vn -0.0411 0.8968 0.4405
vn -0.0411 -0.8968 0.4405
vn -0.0270 -0.9775 0.2094
vn -0.0270 0.9775 0.2094
vn -0.5848 0.0000 -0.8112
vn -0.3409 0.0000 -0.9401
vn -0.0624 0.9855 0.1580
vn -0.0624 -0.9855 0.1580
vn 0.0995 0.9751 0.1982
vn 0.0995 -0.9751 0.1982
vn 0.5372 0.0000 -0.8434
vn -0.6224 0.0000 0.7827
vn 0.0012 0.0000 1.0000
vn 0.0754 0.9921 0.1006
vn 0.3783 0.0752 0.9226
vn 0.3748 0.0745 0.9241
vn 0.0455 -0.7863 0.6162
vn -0.5698 -0.1138 0.8139
vn 0.4987 0.0000 0.8668
vn 0.8397 0.0000 0.5430
vn -0.0003 0.9627 -0.2704
vn 0.0003 0.9627 0.2704
vn 0.0004 -0.9354 0.3535
vn -0.0004 -0.9354 -0.3535
vn 0.9327 0.0026 0.3608
vn -0.9318 0.0026 0.3630
vn 0.9318 0.0026 -0.3630
vn -0.9327 0.0026 -0.3608
vn -0.8590 0.0036 -0.5120
vn -0.8826 0.4482 -0.1415
vn -0.8850 -0.4309 -0.1763
vn -0.8823 0.4482 0.1436
vn -0.8577 0.0037 0.5141
vn -0.8846 -0.4309 0.1784
vn 0.8590 0.0037 0.5120
vn 0.8577 0.0036 -0.5141
vn 0.9460 -0.2993 -0.1243
vn 0.8846 -0.4309 -0.1784
vn -0.9463 -0.2993 -0.1220
vn 0.9463 -0.2993 0.1220
vn -0.9460 -0.2993 0.1243
vn 0.8850 -0.4309 0.1763
vn 0.9451 0.3117 0.0980
vn 0.8826 0.4483 0.1415
vn -0.9449 0.3117 0.1003
vn 0.9449 0.3117 -0.1003
vn -0.9451 0.3117 -0.0980
vn 0.8823 0.4482 -0.1436
vn 0.0012 0.2704 0.9627
vn -0.0012 0.2704 -0.9627
vn -0.0011 -0.3535 -0.9354
vn 0.0011 -0.3535 0.9354
vn -0.0012 0.0107 -0.9999
vn 0.0012 0.0107 0.9999
vn 0.0004 0.9442 0.3294
vn -0.0004 0.9442 -0.3294
vn -0.0005 -0.9152 -0.4029
vn 0.0005 -0.9152 0.4029
vn -0.5572 0.0000 -0.8304
vn -0.5552 0.0000 0.8317
vn 0.0006 -0.8457 0.5336
vn -0.0006 -0.8457 -0.5336
vn 0.0011 0.3973 0.9177
vn -0.0011 0.3973 -0.9177
vn 0.6303 -0.7763 -0.0008
vn 0.8961 0.4439 -0.0011
usemtl Flat.003
s off
f 1//1 2//1 3//1 4//1
f 5//2 3//2 6//2 7//2
f 2//3 8//3 9//3 10//3
f 8//4 5//4 7//4 9//4
f 3//5 2//5 10//5 6//5
f 6//6 10//6 11//6 12//6
f 9//7 7//7 13//7 14//7
f 10//8 9//8 14//8 11//8
f 11//9 14//9 15//9 16//9
f 14//10 13//10 17//10 15//10
f 12//11 11//11 16//11 18//11
f 16//12 15//12 17//12 18//12
f 13//13 7//13 19//13 20//13
f 6//14 12//14 21//14 22//14
f 7//15 6//15 22//15 19//15
f 19//16 22//16 21//16 20//16
f 2//17 1//17 23//17 24//17
f 8//18 2//18 24//18 25//18
f 26//12 25//12 24//12 23//12
f 4//19 3//19 27//19 28//19
f 3//20 5//20 29//20 27//20
f 21//1 12//1 30//1 31//1
f 20//16 21//16 31//16 32//16
f 13//21 20//21 32//21 33//21
f 17//21 13//21 33//21 34//21
f 18//12 17//12 34//12 35//12
f 12//1 18//1 35//1 30//1
f 30//20 33//20 32//20 31//20
f 33//20 30//20 35//20 34//20
f 29//22 5//22 36//22 37//22
f 38//23 29//23 37//23 39//23
f 25//24 26//24 40//24 41//24
f 8//24 25//24 41//24 42//24
f 5//21 8//21 42//21 36//21
f 36//20 42//20 43//20 44//20
f 39//25 37//25 45//25 46//25
f 37//26 36//26 44//26 45//26
f 47//27 43//27 48//27 49//27
f 43//28 42//28 50//28 48//28
f 42//29 41//29 51//29 50//29
f 41//30 40//30 52//30 51//30
f 49//24 48//24 53//24 54//24
f 51//31 52//31 54//31 53//31
f 50//32 51//32 53//32 48//32
f 43//21 47//21 55//21 56//21
f 45//21 44//21 57//21 58//21
f 46//21 45//21 58//21 59//21
f 44//21 43//21 56//21 57//21
f 57//20 56//20 60//20 61//20
f 59//16 58//16 62//16 63//16
f 58//33 57//33 61//33 62//33
f 56//12 55//12 64//12 60//12
f 65//21 61//21 60//21 64//21
f 61//21 65//21 63//21 62//21
f 27//34 29//34 66//34 67//34
f 28//1 27//1 67//1 68//1
f 29//21 38//21 69//21 66//21
f 68//16 67//16 66//16 69//16
f 1//1 4//1 70//1 71//1
f 72//35 73//35 74//35 70//35
f 71//36 75//36 76//36 77//36
f 77//37 76//37 73//37 72//37
f 70//38 74//38 75//38 71//38
f 74//39 78//39 79//39 75//39
f 76//40 80//40 81//40 73//40
f 75//41 79//41 80//41 76//41
f 79//42 82//42 83//42 80//42
f 80//43 83//43 84//43 81//43
f 78//44 85//44 82//44 79//44
f 82//12 85//12 84//12 83//12
f 81//45 86//45 87//45 73//45
f 74//46 88//46 89//46 78//46
f 73//47 87//47 88//47 74//47
f 87//16 86//16 89//16 88//16
f 71//17 90//17 23//17 1//17
f 77//48 91//48 90//48 71//48
f 26//12 23//12 90//12 91//12
f 4//19 28//19 92//19 70//19
f 70//49 92//49 93//49 72//49
f 89//1 94//1 95//1 78//1
f 86//16 96//16 94//16 89//16
f 81//21 97//21 96//21 86//21
f 84//21 98//21 97//21 81//21
f 85//12 99//12 98//12 84//12
f 78//1 95//1 99//1 85//1
f 95//49 94//49 96//49 97//49
f 97//49 98//49 99//49 95//49
f 93//50 100//50 101//50 72//50
f 38//23 39//23 100//23 93//23
f 91//24 102//24 40//24 26//24
f 77//24 103//24 102//24 91//24
f 72//21 101//21 103//21 77//21
f 101//49 104//49 105//49 103//49
f 39//25 46//25 106//25 100//25
f 100//51 106//51 104//51 101//51
f 47//27 49//27 107//27 105//27
f 105//52 107//52 108//52 103//52
f 103//53 108//53 109//53 102//53
f 102//30 109//30 52//30 40//30
f 49//24 54//24 110//24 107//24
f 109//31 110//31 54//31 52//31
f 108//54 107//54 110//54 109//54
f 105//21 111//21 55//21 47//21
f 106//21 112//21 113//21 104//21
f 46//21 59//21 112//21 106//21
f 104//21 113//21 111//21 105//21
f 113//49 114//49 115//49 111//49
f 59//16 63//16 116//16 112//16
f 112//55 116//55 114//55 113//55
f 111//12 115//12 64//12 55//12
f 65//21 64//21 115//21 114//21
f 114//21 116//21 63//21 65//21
f 92//56 117//56 118//56 93//56
f 28//1 68//1 117//1 92//1
f 93//21 118//21 69//21 38//21
f 68//16 69//16 118//16 117//16
usemtl Flat.004
f 131//12 127//12 129//12 132//12
f 119//12 120//12 125//12 126//12
f 128//21 123//21 122//21 130//21
f 128//21 130//21 129//21 127//21
f 123//21 124//21 121//21 122//21
f 121//21 124//21 120//21 119//21
f 123//57 128//57 133//57 134//57
f 130//58 122//58 135//58 136//58
f 137//59 138//59 139//59 140//59
f 141//60 142//60 143//60 144//60
f 134//20 133//20 144//20 143//20
f 140//49 139//49 136//49 135//49
f 140//61 135//61 145//61 146//61
f 136//62 139//62 147//62 148//62
f 134//63 143//63 149//63 150//63
f 144//64 133//64 151//64 152//64
f 153//65 154//65 155//65 156//65
f 154//66 124//66 157//66 155//66
f 158//67 153//67 156//67 159//67
f 121//68 160//68 161//68 162//68
f 160//69 163//69 164//69 161//69
f 163//70 165//70 166//70 164//70
f 167//71 168//71 169//71 170//71
f 171//72 172//72 173//72 174//72
f 143//73 142//73 175//73 149//73
f 172//74 176//74 177//74 173//74
f 141//75 144//75 152//75 178//75
f 137//76 140//76 146//76 179//76
f 139//77 138//77 180//77 147//77
f 181//78 167//78 170//78 182//78
f 135//79 122//79 183//79 145//79
f 168//80 129//80 184//80 169//80
f 130//81 136//81 148//81 185//81
f 123//82 134//82 150//82 186//82
f 133//83 128//83 187//83 151//83
f 127//84 171//84 174//84 188//84
f 128//85 127//85 188//85 187//85
f 129//86 130//86 185//86 184//86
f 138//87 181//87 182//87 180//87
f 176//88 141//88 178//88 177//88
f 165//87 137//87 179//87 166//87
f 142//88 158//88 159//88 175//88
f 124//85 123//85 186//85 157//85
f 122//86 121//86 162//86 183//86
f 155//89 150//89 149//89 156//89
f 145//90 161//90 164//90 146//90
f 147//90 170//90 169//90 148//90
f 151//89 174//89 173//89 152//89
f 183//91 162//91 161//91 145//91
f 157//92 186//92 150//92 155//92
f 175//93 159//93 156//93 149//93
f 166//94 179//94 146//94 164//94
f 177//93 178//93 152//93 173//93
f 180//94 182//94 170//94 147//94
f 184//91 185//91 148//91 169//91
f 187//92 188//92 174//92 151//92
f 154//20 153//20 189//20 190//20
f 124//57 154//57 190//57 120//57
f 153//60 158//60 125//60 189//60
f 160//58 121//58 119//58 191//58
f 163//49 160//49 191//49 192//49
f 165//59 163//59 192//59 126//59
f 125//95 120//95 190//95 189//95
f 119//96 126//96 192//96 191//96
f 126//12 125//12 193//12 194//12
f 165//97 126//97 194//97 195//97
f 181//97 138//97 196//97 197//97
f 138//97 137//97 198//97 196//97
f 141//98 176//98 199//98 200//98
f 142//98 141//98 200//98 201//98
f 137//97 165//97 195//97 198//97
f 158//98 142//98 201//98 202//98
f 125//98 158//98 202//98 193//98
f 200//1 199//1 197//1 196//1
f 201//1 200//1 196//1 198//1
f 193//1 202//1 195//1 194//1
f 202//1 201//1 198//1 195//1
f 197//1 199//1 203//1 204//1
f 199//98 176//98 205//98 203//98
f 181//97 197//97 204//97 206//97
f 168//49 167//49 207//49 208//49
f 172//20 171//20 209//20 210//20
f 176//60 172//60 210//60 205//60
f 167//59 181//59 206//59 207//59
f 129//58 168//58 208//58 211//58
f 171//57 127//57 212//57 209//57
f 131//21 132//21 213//21 214//21
f 132//99 129//99 211//99 213//99
f 127//100 131//100 214//100 212//100
f 205//101 206//101 204//101 203//101
f 206//16 211//16 208//16 207//16
f 212//16 205//16 210//16 209//16
f 211//102 212//102 214//102 213//102
f 212//16 211//16 206//16 205//16
